PathFileType	4	(X/Y/Z)	C:\Vicon\SynologyDrive\Alex P\Athlete_3\Athlete_3_22_07_06\static_01\marker_experimental.trc																																																																																																																																																																																																																																											
DataRate	CameraRate	NumFrames	NumMarkers	Units	OrigDataRate	OrigDataStartFrame	OrigNumFrames																																																																																																																																																																																																																																							
200	200	4	79	mm	200	86	693																																																																																																																																																																																																																																							
Frame#	Time	GLAB			RFHD			LFHD			C7			T6			SPINMOL			SPINM2			SPINM3			T12			BELTOL			BELT2			BELT3			SACROL			SACR2			SACR3			LASI			RASI			LPSI			RPSI			LTHOL			LTH2			LTH3			LKNEL			LKNEM			LFIB			LSHAOL			LSHA2			LSHA3			LMALL			LMALM			LHEE			LTOE			LM5			RTHOL			RTH2			RTH3			RKNEL			RKNEM			RFIB			RSHAOL			RSHA2			RSHA3			RMALL			RMALM			RHEE			RTOE			RM5			STRN			XIPH			LACR			LUAOL			LUA2			LUA3			LCUBL			LCUBM			LLAOL			LLA2			LLA3			LWRR			LWRU			RACR			RUAOL			RUA2			RUA3			RCUBL			RCUBM			RLAOL			RLA2			RLA3			RWRR			RWRU			Bar:BL			Bar:BR			LKJCWK			RKJCWK			RAJCWK			LAJCWK			RHJCWK			LHJCWK		
		X1	Y1	Z1	X2	Y2	Z2	X3	Y3	Z3	X4	Y4	Z4	X5	Y5	Z5	X6	Y6	Z6	X7	Y7	Z7	X8	Y8	Z8	X9	Y9	Z9	X10	Y10	Z10	X11	Y11	Z11	X12	Y12	Z12	X13	Y13	Z13	X14	Y14	Z14	X15	Y15	Z15	X16	Y16	Z16	X17	Y17	Z17	X18	Y18	Z18	X19	Y19	Z19	X20	Y20	Z20	X21	Y21	Z21	X22	Y22	Z22	X23	Y23	Z23	X24	Y24	Z24	X25	Y25	Z25	X26	Y26	Z26	X27	Y27	Z27	X28	Y28	Z28	X29	Y29	Z29	X30	Y30	Z30	X31	Y31	Z31	X32	Y32	Z32	X33	Y33	Z33	X34	Y34	Z34	X35	Y35	Z35	X36	Y36	Z36	X37	Y37	Z37	X38	Y38	Z38	X39	Y39	Z39	X40	Y40	Z40	X41	Y41	Z41	X42	Y42	Z42	X43	Y43	Z43	X44	Y44	Z44	X45	Y45	Z45	X46	Y46	Z46	X47	Y47	Z47	X48	Y48	Z48	X49	Y49	Z49	X50	Y50	Z50	X51	Y51	Z51	X52	Y52	Z52	X53	Y53	Z53	X54	Y54	Z54	X55	Y55	Z55	X56	Y56	Z56	X57	Y57	Z57	X58	Y58	Z58	X59	Y59	Z59	X60	Y60	Z60	X61	Y61	Z61	X62	Y62	Z62	X63	Y63	Z63	X64	Y64	Z64	X65	Y65	Z65	X66	Y66	Z66	X67	Y67	Z67	X68	Y68	Z68	X69	Y69	Z69	X70	Y70	Z70	X71	Y71	Z71	X72	Y72	Z72	X73	Y73	Z73	X74	Y74	Z74	X75	Y75	Z75	X76	Y76	Z76	X77	Y77	Z77	X78	Y78	Z78	X79	Y79	Z79
																																																																																																																																																																																																																																														
87	0.43	353.9453735	1573.284546	-1215.578125	294.7656555	1588.270996	-1139.176758	290.5574036	1588.730347	-1291.354858	128.7086792	1449.226318	-1212.262329	74.19574738	1244.090454	-1227.078979	70.06612396	1211.792847	-1231.388184	65.20257568	1150.814575	-1179.590942	74.61013794	1150.006592	-1228.483643	87.8318634	1109.196289	-1227.383667	64.63982391	1086.686768	-1226.707031	66.00899506	1027.086304	-1173.61792	58.41995621	1024.911865	-1223.219482	69.46869659	975.0651245	-1248.612305	76.26947021	984.7244263	-1198.859009	46.13290787	926.4868774	-1210.143188	285.5325623	942.6779785	-1337.073364	289.4174194	942.0795288	-1109.372803	80.86862183	991.223938	-1260.38623	81.45649719	989.8370361	-1171.180542	200.0305176	737.4275513	-1444.431274	151.0306091	676.6502686	-1427.577271	199.5900574	675.4584961	-1440.906494	192.1163483	498.0689087	-1427.59375	215.3135071	466.5020142	-1283.903198	152.1914673	442.1712646	-1428.780273	144.5641632	325.7478027	-1450.078491	101.4061737	259.8110046	-1444.731812	150.7598267	264.0494995	-1450.259521	125.9971161	85.20675659	-1434.199707	169.2151031	96.31498718	-1350.543701	78.42334747	38.76192856	-1374.847168	289.6235962	47.32889175	-1391.255249	238.5797272	32.1403389	-1492.118408	173.4136353	708.3034668	-1006.519958	205.169342	636.194458	-993.0004272	159.2951965	647.6021118	-1009.709778	160.0245667	496.8179016	-1013.978577	207.9585724	461.7409058	-1151.976196	116.1909943	442.2834167	-1015.323608	91.04758453	323.04245	-998.5061646	130.7488403	255.859436	-983.2720337	84.67483521	261.9324951	-1002.411194	89.98497009	86.66855621	-1016.788269	152.9224396	96.96731567	-1084.306885	58.01643372	38.087883	-1077.644287	261.5760498	43.20388031	-1022.307495	202.3673859	40.99908066	-937.2404785	278.1916199	1366.794189	-1224.858887	315.63797	1209.329346	-1226.868408	139.2844391	1413.532227	-1400.622314	126.7290802	1348.324341	-1514.116455	117.4250717	1297.812378	-1556.437988	151.493866	1333.24353	-1573.604492	162.6470795	1295.752197	-1681.891235	185.6756134	1209.687256	-1631.823975	191.3706512	1263.939575	-1767.771362	196.8635406	1227.403442	-1822.123535	235.5193176	1258.859253	-1815.968018	304.8486328	1187.412964	-1861.510742	247.2711487	1209.334473	-1903.851563	156.4741821	1402.639282	-1041.647339	167.0001373	1335.780518	-909.1329956	217.2189941	1327.274292	-866.2307129	172.1220398	1316.049194	-845.7181396	164.6474762	1289.513916	-795.18927	220.1825562	1195.797363	-808.8931885	222.5303497	1271.655151	-672.8044434	273.2772827	1260.174194	-633.2077637	228.4892273	1247.446167	-612.7885132	311.0775757	1179.901001	-580.3051758	245.062439	1212.353271	-543.6668091	1512.101563	1285.461182	-2307.418457	1540.644775	1283.410278	0	203.7149	482.2855	-1355.7485	183.9916	479.2794	-1082.9774	119.7654	81.3578	-1049.6721	146.0905	80.1853	-1393.3609	229.8844	873.3969	-1139.9412	227.0708	873.8303	-1304.853
88	0.435	353.6991577	1573.328247	-1215.705566	294.8276062	1588.271484	-1139.186646	290.6020813	1588.725098	-1291.361938	128.7710266	1449.228027	-1212.245972	74.25535583	1244.087402	-1227.049438	70.13035583	1211.787476	-1231.364136	65.27400208	1150.805664	-1179.570557	74.67541504	1150.000732	-1228.46228	87.91047668	1109.186646	-1227.361694	64.70910645	1086.678589	-1226.690674	66.086586	1027.075073	-1173.60376	58.49364471	1024.904175	-1223.198486	69.57500458	975.0872803	-1248.52832	76.30890656	984.7318726	-1198.829956	46.21047592	926.4954224	-1210.128784	285.5878906	942.6777344	-1337.064331	289.3280334	942.1968994	-1109.373169	80.93668365	991.2297363	-1260.373169	81.52921295	989.8379517	-1171.167236	200.0962677	737.4307251	-1444.418335	151.1806183	676.611145	-1427.441406	199.6351471	675.4564209	-1440.900269	192.1516266	498.0632324	-1427.589478	215.352951	466.4925842	-1283.893066	152.2206268	442.1748962	-1428.770874	144.5241852	325.8666382	-1450.214844	101.4298477	259.8157349	-1444.73645	150.7772064	264.0542908	-1450.256836	126.0027084	85.21291351	-1434.201172	169.2197266	96.31446838	-1350.540771	78.43969727	38.76291656	-1374.834229	289.6245422	47.32276917	-1391.249023	238.5790863	32.14223862	-1492.126587	173.4597626	708.3052979	-1006.520325	205.2133331	636.1954346	-993.0030518	159.3449707	647.6124268	-1009.717834	160.0490112	496.8233643	-1013.982544	207.9811096	461.7306824	-1151.978638	116.2082825	442.2860107	-1015.339478	91.05599213	323.0501099	-998.5128784	130.7656555	255.8776398	-983.2858276	84.7050705	261.8158875	-1002.535706	89.99217987	86.6704483	-1016.793762	152.9304352	96.96365356	-1084.31189	58.01581573	38.09663773	-1077.643921	261.5822754	43.20781708	-1022.302795	202.3669434	40.99909973	-937.2365112	278.2582703	1366.784546	-1224.847778	315.6960754	1209.320435	-1226.86377	139.3241425	1413.517578	-1400.604492	126.7614365	1348.326294	-1514.089111	117.4646988	1297.806885	-1556.411011	151.5236053	1333.243652	-1573.593994	162.6723328	1295.758179	-1681.87793	185.7024078	1209.670288	-1631.820801	191.3856506	1263.958984	-1767.751587	196.8890686	1227.418579	-1822.107666	235.5336304	1258.877319	-1815.959473	304.8796082	1187.429443	-1861.501709	247.3061829	1209.363403	-1903.850464	156.5417633	1402.626343	-1041.637329	167.0762024	1335.776001	-909.1166992	217.2572174	1327.095825	-866.3270874	172.1796265	1316.0271	-845.7090454	164.7048645	1289.50708	-795.1724854	220.2272034	1195.793701	-808.8751831	222.6069489	1271.662842	-672.7911377	273.3355408	1260.171143	-633.2123413	228.5451202	1247.44043	-612.7697144	311.1344604	1179.899414	-580.281311	245.1128845	1212.357666	-543.6481323	1512.088013	1285.446533	-2307.398926	1540.639038	1283.413574	0	203.7523	482.2779	-1355.7413	184.0151	479.277	-1082.9806	119.7726	81.357	-1049.6774	146.0948	80.1883	-1393.3604	229.8265	873.4882	-1139.9381	227.1175	873.8364	-1304.852
89	0.44	353.7518005	1573.312866	-1215.701538	294.8929749	1588.264648	-1139.181152	290.6590271	1588.717041	-1291.359253	128.9446564	1449.167969	-1212.182495	74.32931519	1244.078979	-1227.027344	70.38169861	1211.731445	-1231.347168	65.3379364	1150.804688	-1179.546021	74.72484589	1149.998535	-1228.430908	87.99369812	1109.186523	-1227.330688	64.78813934	1086.673584	-1226.665039	66.1717453	1027.068237	-1173.58313	58.57066345	1024.898438	-1223.179443	69.6210556	975.0223999	-1248.542969	76.3857193	984.7351074	-1198.823608	46.28079605	926.4956665	-1210.106079	285.6733093	942.6876831	-1337.066528	289.4122925	942.201355	-1109.367676	81.01152802	991.2276001	-1260.354004	81.61064911	989.840271	-1171.14624	200.1448975	737.423645	-1444.400391	151.1572876	676.6747437	-1427.563721	199.6898651	675.4695435	-1440.908691	192.1825562	498.0624695	-1427.589966	215.3878479	466.4881287	-1283.893433	152.2484741	442.1784668	-1428.763062	144.5394135	325.8733521	-1450.209229	101.4473419	259.8266602	-1444.736206	150.7958832	264.0598145	-1450.255127	126.0116425	85.21694183	-1434.195801	169.2225494	96.30892181	-1350.537354	78.40419006	38.77302933	-1374.856934	289.625824	47.32288742	-1391.251709	238.5774994	32.13802719	-1492.123413	173.5225067	708.3070679	-1006.53479	205.2478638	636.1939697	-992.9970703	159.3798981	647.6158447	-1009.722168	160.0684204	496.822052	-1013.991577	207.9982605	461.7245178	-1151.984497	116.2248535	442.2918701	-1015.348694	91.0712738	323.0489502	-998.5141602	130.7806396	255.880127	-983.2932739	84.70960236	261.821228	-1002.535583	89.99634552	86.67783356	-1016.797668	152.9378815	96.9682312	-1084.313354	58.03646469	38.0921669	-1077.655762	261.5836487	43.2002182	-1022.299194	202.3623047	40.99845505	-937.2414551	278.3183289	1366.770142	-1224.835449	315.7622375	1209.311523	-1226.858154	139.3749084	1413.495605	-1400.585693	126.8102264	1348.314087	-1514.080811	117.5639267	1297.818115	-1556.394287	151.5522156	1333.236694	-1573.576294	162.7044525	1295.760986	-1681.865967	185.7248993	1209.656616	-1631.803467	191.4291534	1263.976929	-1767.753906	196.9367065	1227.419434	-1822.088623	235.5674591	1258.888672	-1815.946655	304.9091187	1187.449951	-1861.504272	247.3264465	1209.386353	-1903.838135	156.6151733	1402.62561	-1041.618652	167.1178589	1335.757324	-909.1159058	217.3126068	1327.093994	-866.3059082	172.2428589	1316.036865	-845.6929932	164.7542267	1289.498413	-795.1516113	220.2824249	1195.786133	-808.8569946	222.6710205	1271.619751	-672.7593384	273.4485779	1259.879517	-633.2861938	228.6806488	1247.317505	-612.798645	311.1868591	1179.896606	-580.2564087	245.1677094	1212.362549	-543.6240845	1512.095581	1285.45752	-2307.408203	1540.636963	1283.412598	0	203.7852	482.2753	-1355.7417	184.0333	479.2733	-1082.988	119.778	81.3631	-1049.6799	146.0999	80.1876	-1393.3559	229.9135	873.4911	-1139.9384	227.2055	873.8433	-1304.852
90	0.445	353.8061523	1573.321533	-1215.704468	294.9464111	1588.265991	-1139.17981	290.7074585	1588.710571	-1291.356689	128.9205017	1449.205688	-1212.210571	74.40454102	1244.06897	-1227.00415	70.42893219	1211.733765	-1231.328857	65.41043854	1150.794922	-1179.522339	74.77229309	1149.999512	-1228.421997	88.07587433	1109.190918	-1227.310791	64.86886597	1086.668091	-1226.641235	66.24350739	1027.057129	-1173.565186	58.64821243	1024.890015	-1223.157227	69.73136139	975.1138306	-1248.493042	76.49591064	984.7348022	-1198.809937	46.36235809	926.5072021	-1210.0802	285.7507935	942.6849976	-1337.069458	289.5057678	942.2006836	-1109.374634	81.09133911	991.2305298	-1260.337524	81.69515228	989.8443604	-1171.126587	200.2015533	737.4283447	-1444.400024	151.192688	676.6809692	-1427.542969	199.7392578	675.4718628	-1440.908325	192.2139587	498.0598755	-1427.588745	215.0045013	466.3567505	-1284.060425	152.2642365	442.1786194	-1428.750854	144.5666504	325.8809204	-1450.201904	101.453476	259.839386	-1444.729004	150.8065186	264.0613403	-1450.252319	126.0151062	85.21553802	-1434.189941	169.2321472	96.31544495	-1350.544189	78.4396286	38.76593781	-1374.829956	289.6231689	47.32651901	-1391.244019	238.5789032	32.13994598	-1492.120728	173.5719757	708.3046875	-1006.535767	205.3008728	636.1917725	-993.0062866	159.4298553	647.6185913	-1009.732727	160.0975037	496.8232727	-1014.000122	208.0297394	461.7209167	-1151.988281	116.2509384	442.295105	-1015.3573	91.0737381	323.0322876	-998.5427246	130.7882538	255.874939	-983.2920532	84.71531677	261.9458313	-1002.419861	89.99842072	86.68260956	-1016.797363	152.938736	96.9666214	-1084.317993	58.02244568	38.10090637	-1077.652588	261.5845947	43.20336914	-1022.303101	202.3595428	40.99958038	-937.2401733	278.3799133	1366.76123	-1224.824341	315.8256836	1209.307983	-1226.854248	139.4151306	1413.477539	-1400.567993	126.839859	1348.307373	-1514.071655	117.5883408	1297.815552	-1556.378296	151.591629	1333.230591	-1573.553101	162.7223053	1295.764526	-1681.849731	185.7534943	1209.654541	-1631.783447	191.3985901	1263.98938	-1767.644165	196.9613495	1227.432251	-1822.069092	235.5925751	1258.90625	-1815.932251	304.9320068	1187.472168	-1861.496948	247.3522186	1209.418945	-1903.837646	156.6790924	1402.622314	-1041.604858	167.1933899	1335.758545	-909.1034546	217.3755951	1327.080322	-866.2811279	172.2904663	1316.017822	-845.6740723	164.8095856	1289.497437	-795.1359863	220.3385925	1195.778687	-808.8375854	222.7034149	1271.649902	-672.7561035	273.4918823	1260.028198	-633.2976074	228.6478577	1247.54895	-612.6658936	311.2430725	1179.900146	-580.230835	245.2176056	1212.359375	-543.616394	1512.091187	1285.451294	-2307.407227	1540.644165	1283.415649	0	203.6092	482.2083	-1355.8246	184.0636	479.2721	-1082.9942	119.7787	81.3648	-1049.682	146.111	80.1893	-1393.3544	230.0035	873.4913	-1139.9387	227.2839	873.842	-1304.852
